<svg width="30" height="30" viewBox="0 0 30 30" fill="none" xmlns="http://www.w3.org/2000/svg">
<path fill-rule="evenodd" clip-rule="evenodd" d="M8.96315 11.9038C10.141 11.8236 11.2146 12.6013 11.3936 13.8505C11.4939 14.5505 11.5761 15.5522 11.5761 16.9565C11.5761 18.3613 11.4939 19.363 11.3936 20.063C11.2063 21.3709 10.0378 22.1618 8.79636 21.9921C7.63859 21.8336 6.49794 21.5186 5.76033 21.2887C4.92783 21.0295 4.23082 20.3658 4.02294 19.4442C3.84091 18.6275 3.74938 17.7933 3.75 16.9565C3.75 15.9352 3.88696 15.0743 4.02294 14.4693C4.20538 13.6598 4.76495 13.0498 5.46196 12.7373C5.49718 7.75598 9.76631 3.75 15 3.75C20.2337 3.75 24.5028 7.75598 24.538 12.7373C25.2351 13.0498 25.7946 13.6598 25.9771 14.4688C26.1135 15.0743 26.25 15.9352 26.25 16.9565C26.25 17.9778 26.113 18.8387 25.9771 19.4442C25.7799 20.3188 25.1426 20.9605 24.3668 21.2457C23.8493 22.9425 22.8212 24.1154 21.2266 24.8271C19.6467 25.5315 17.5621 25.7599 15 25.7599C14.7406 25.7599 14.4917 25.6568 14.3083 25.4734C14.1248 25.2899 14.0217 25.0411 14.0217 24.7816C14.0217 24.5222 14.1248 24.2734 14.3083 24.0899C14.4917 23.9064 14.7406 23.8034 15 23.8034C17.5092 23.8034 19.2452 23.5686 20.4293 23.0403C21.0652 22.7566 21.5543 22.3834 21.9212 21.8752C21.6845 21.9196 21.4454 21.9587 21.2041 21.9926C19.9622 22.1618 18.7937 21.3709 18.6068 20.063C18.5061 19.363 18.4239 18.3608 18.4239 16.957C18.4239 15.5522 18.5061 14.5505 18.6064 13.8501C18.7854 12.6013 19.859 11.8236 21.0373 11.9038C20.5712 9.23511 19.375 5.625 15 5.625C10.625 5.625 9.42832 9.23511 8.96315 11.9038ZM9.06098 13.8593C9.19549 13.8412 9.28696 13.876 9.34076 13.9151C9.39163 13.9518 9.44055 14.0144 9.45669 14.1274C9.54131 14.7192 9.61957 15.6266 9.61957 16.9565C9.61957 18.287 9.54131 19.1938 9.45669 19.7857C9.44055 19.8986 9.39114 19.9617 9.34076 19.9984C9.28696 20.0376 9.19549 20.0718 9.06098 20.0537C8.05729 19.9167 7.03354 19.636 6.34239 19.4208C6.10614 19.3474 5.97017 19.1845 5.93152 19.0143C5.78132 18.3387 5.70587 17.6486 5.70652 16.9565C5.70652 16.1074 5.82049 15.3928 5.93152 14.8992C5.97017 14.729 6.10614 14.5661 6.34239 14.4923C7.03354 14.2771 8.05729 13.9968 9.06098 13.8593ZM20.6592 13.9151C20.6089 13.9518 20.5595 14.0144 20.5433 14.1274C20.4587 14.7192 20.3804 15.6266 20.3804 16.9565C20.3804 18.287 20.4587 19.1938 20.5433 19.7857C20.5595 19.8986 20.6089 19.9617 20.6592 19.9984C20.713 20.0376 20.8045 20.0718 20.939 20.0537C21.9427 19.9167 22.9665 19.636 23.6576 19.4208C23.8939 19.3474 24.0298 19.1845 24.0685 19.0143C24.1795 18.5203 24.2935 17.8061 24.2935 16.9565C24.2941 16.2646 24.2186 15.5747 24.0685 14.8992C24.0298 14.729 23.8939 14.5661 23.6576 14.4923C22.9665 14.2771 21.9427 13.9968 20.939 13.8593C20.8045 13.8412 20.713 13.876 20.6592 13.9151Z" fill="#FAB49F"/>
</svg>
